<svg width="24" height="24" viewBox="0 0 24 24" fill="none" xmlns="http://www.w3.org/2000/svg">
<g clip-path="url(#clip0_56_1867)">
<path d="M2 21V3C2 2.73478 2.10536 2.48043 2.29289 2.29289C2.48043 2.10536 2.73478 2 3 2H8V0H3C2.20435 0 1.44129 0.31607 0.87868 0.87868C0.31607 1.44129 0 2.20435 0 3L0 21C0 21.7956 0.31607 22.5587 0.87868 23.1213C1.44129 23.6839 2.20435 24 3 24H8V22H3C2.73478 22 2.48043 21.8946 2.29289 21.7071C2.10536 21.5196 2 21.2652 2 21Z" fill="#FFFFFF"/>
<path d="M23.1225 9.87848L18.5365 5.29248L17.1225 6.70648L21.3865 10.9705L4.99951 10.9995V12.9995L21.4425 12.9705L17.1205 17.2925L18.5345 18.7065L23.1205 14.1205C23.6832 13.5582 23.9995 12.7954 23.9999 11.9999C24.0002 11.2044 23.6847 10.4413 23.1225 9.87848Z" fill="#FFFFFF"/>
</g>
<defs>
<clipPath id="clip0_56_1867">
<rect width="24" height="24" fill="white"/>
</clipPath>
</defs>
</svg>
