<svg width="24" height="24" viewBox="0 0 24 24" fill="none" xmlns="http://www.w3.org/2000/svg">
<g clip-path="url(#clip0_56_2175)">
<path d="M9 12C10.1867 12 11.3467 11.6481 12.3334 10.9888C13.3201 10.3295 14.0892 9.39246 14.5433 8.2961C14.9974 7.19975 15.1162 5.99335 14.8847 4.82946C14.6532 3.66558 14.0818 2.59648 13.2426 1.75736C12.4035 0.918247 11.3344 0.346802 10.1705 0.115291C9.00666 -0.11622 7.80026 0.00259972 6.7039 0.456726C5.60754 0.910851 4.67047 1.67989 4.01118 2.66658C3.35189 3.65328 3 4.81331 3 6C3.00159 7.59081 3.63424 9.11602 4.75911 10.2409C5.88399 11.3658 7.40919 11.9984 9 12ZM9 2C9.79113 2 10.5645 2.2346 11.2223 2.67412C11.8801 3.11365 12.3928 3.73836 12.6955 4.46927C12.9983 5.20017 13.0775 6.00444 12.9231 6.78036C12.7688 7.55629 12.3878 8.26902 11.8284 8.82843C11.269 9.38784 10.5563 9.7688 9.78036 9.92314C9.00444 10.0775 8.20017 9.99827 7.46927 9.69552C6.73836 9.39277 6.11365 8.88008 5.67412 8.22228C5.2346 7.56449 5 6.79113 5 6C5 4.93914 5.42143 3.92172 6.17157 3.17158C6.92172 2.42143 7.93913 2 9 2Z" fill="#FFFFFF"/>
<path d="M21 9.99951V6.99951H19V9.99951H16V11.9995H19V14.9995H21V11.9995H24V9.99951H21Z" fill="#FFFFFF"/>
<path d="M13.043 14.0005H4.957C3.64281 14.0021 2.3829 14.5248 1.45363 15.4541C0.524352 16.3834 0.00158783 17.6433 0 18.9575L0 24.0005H2V18.9575C2.00079 18.1735 2.31259 17.4218 2.86696 16.8675C3.42134 16.3131 4.173 16.0013 4.957 16.0005H13.043C13.827 16.0013 14.5787 16.3131 15.133 16.8675C15.6874 17.4218 15.9992 18.1735 16 18.9575V24.0005H18V18.9575C17.9984 17.6433 17.4756 16.3834 16.5464 15.4541C15.6171 14.5248 14.3572 14.0021 13.043 14.0005Z" fill="#FFFFFF"/>
</g>
<defs>
<clipPath id="clip0_56_2175">
<rect width="24" height="24" fill="white"/>
</clipPath>
</defs>
</svg>
